<svg width="15" height="15" viewBox="0 0 15 15" fill="none" xmlns="http://www.w3.org/2000/svg">
<g clip-path="url(#clip0_1_1653)">
<path d="M10.9425 4.19762L6 9.15503L3.3075 6.46193L2.25 7.52262L6 11.2839L12 5.26584L10.9425 4.19762ZM7.5 0C3.36 0 0 3.37014 0 7.52262C0 11.6751 3.36 15.0452 7.5 15.0452C11.64 15.0452 15 11.6751 15 7.52262C15 3.37014 11.64 0 7.5 0ZM7.5 13.5407C4.185 13.5407 1.5 10.8476 1.5 7.52262C1.5 4.19762 4.185 1.50452 7.5 1.50452C10.815 1.50452 13.5 4.19762 13.5 7.52262C13.5 10.8476 10.815 13.5407 7.5 13.5407Z" fill="black"/>
</g>
<defs>
<clipPath id="clip0_1_1653">
<rect width="15" height="15" fill="white"/>
</clipPath>
</defs>
</svg>
